<svg id="Layer_1" data-name="Layer 1" xmlns="http://www.w3.org/2000/svg" viewBox="0 0 416.5 559.88"><defs><style>.cls-1{fill:#0049ff;}.cls-2{font-size:21.43px;font-family:Roboto-Regular, Roboto;}.cls-3{fill:none;stroke:#000;stroke-miterlimit:10;}</style></defs><path class="cls-1" d="M477.92,321.61l61.53-61.53,63.9,59.16h-42.6V522.76L475.56,442.3Q476.75,382,477.92,321.61Z" transform="translate(-352.5 -260.08)"/><path class="cls-1" d="M650.68,366.87l85.19,85.2V575.12L769,608.25l-61.53,56.8-56.79-56.8Z" transform="translate(-352.5 -260.08)"/><path class="cls-1" d="M414,380.77l61.53,61.53V683.68l-89.93-85.2v-123L352.5,442.3Z" transform="translate(-352.5 -260.08)"/><path class="cls-1" d="M560.75,523.06l89.93,85.19v121.3l-61.53,63.29h0l-66.26-61.53h42.59Q563.13,627.18,560.75,523.06Z" transform="translate(-352.5 -260.08)"/><text class="cls-2" transform="translate(321.44 554.07)">R</text><circle class="cls-3" cx="327.9" cy="546.17" r="13.01"/></svg>